<svg width="12" height="12" viewBox="0 0 12 12" fill="currentColor" xmlns="http://www.w3.org/2000/svg">
<path fill-rule="evenodd" clip-rule="evenodd" d="M0.113226 11.3357C-0.0378935 11.4868 -0.0378936 11.7317 0.113226 11.8828C0.264346 12.0339 0.509359 12.0339 0.660479 11.8828L5.99793 6.54708L11.3392 11.8866C11.4904 12.0377 11.7354 12.0377 11.8865 11.8866C12.0376 11.7356 12.0376 11.4906 11.8865 11.3396L6.54519 6L11.8865 0.660438C12.0376 0.509367 12.0376 0.264433 11.8865 0.113363C11.7354 -0.037708 11.4904 -0.0377083 11.3392 0.113362L5.99793 5.45293L0.66048 0.11721C0.50936 -0.033861 0.264346 -0.0338611 0.113226 0.11721C-0.0378936 0.26828 -0.0378939 0.513214 0.113226 0.664284L5.45068 6L0.113226 11.3357Z"/>
</svg>
