<?xml version="1.0" encoding="UTF-8"?><svg id="a" xmlns="http://www.w3.org/2000/svg" viewBox="0 0 1765.41 199.55"><defs><style>.b{fill:none;stroke:#ffb5a7;stroke-miterlimit:10;stroke-width:3px;}</style></defs><path class="b" d="M319.85,186.43h-8.55v-8.78h-8.42v-6.19h8.36v-11.1c-2.83-.55-5.65,.22-8.31-.46v-6.03h8.26v-11.39h-8.32v-6.2h8.32v-11.47h-8.28v-6.19h8.31v-11.29h-8.33v-6.41h8.43v-20h-8.66v-8.82h-8.85v-8.62h-46.5v8.35c-2.95,.54-13.31,.42-14.87-.1v-5.92h8.47v-11.29h-8.51v-6.22h8.46v-11.45h-8.45v-6.22h8.59c.08-3.92,.08-7.55,.01-11.43h-8.91V10.49h-8.57V1.5h-37.92c.05,3.81,.1,7.61,.16,11.68h8.79v8.79h8.85v8.8h8.52v6.23h-8.45v11.31h8.48v6.24h-8.41v11.4h8.37v6.31h-8.4v11.28h8.44v6.23h-8.44v11.24h8.39v6.18c-2.9,.43-5.7-.16-8.39,.37v11.21h8.4v6.21h-8.55c0,2.13,0,3.96,0,5.8,0,1.8,.04,3.6,.06,5.59h8.58c.05,2.15,.3,4.09-.23,6.32h-8.25v11.31h8.4v6.26h-8.42v11.3h8.43v6.21h-8.64v8.84h-8.62v11.15h55.06v-11.18h-8.58c-.08-3.11-.14-5.92-.22-9.02h-8.46v-6.1h8.4v-11.37h-8.44v-6.21h8.49v-11.29h-8.48v-6.3h8.21c.61-2.48,.53-9.52-.14-11.45h-8.11v-6.11h8.47v-11.22c-2.9-.4-5.71,.21-8.41-.38v-6.15c3.07,0,5.94,.03,8.81,0,2.84-.03,5.69,.16,8.73-.15v-8.41h14.97v8.67h17.4v6.37h-8.66c0,3.89-.11,7.52,.09,11.39h8.59v6.13h-8.66c-.03,3.89-.11,7.52,.05,11.41h8.7c.03,2.21,.36,4.15-.27,6.31h-8.39v11.06c2.91,.56,5.8-.22,8.56,.47v6.03h-8.43c-.45,3.03-.35,9.42,.22,11.38h8.23v6.13h-8.73v8.83h-8.61v11.19h55.18c0-2,.05-3.84-.01-5.67-.07-1.79,.31-3.63-.38-5.65Z"/><path class="b" d="M1030.37,186.46v-8.83h-8.48v-6.21h8.39v-11.31h-8.42v-6.25h8.43v-11.3h-8.39v-6.32h8.37v-11.39h-8.4v-6.21h8.41v-11.31h-8.41v-6.46h8.41v-19.95h-8.58c0-1.65,.01-3,0-4.35-.02-1.41-.06-2.82-.1-4.26-3.06-.39-5.93,.14-8.98-.39v-8.42h-46.27v8.38c-3.02,.48-13.32,.36-14.95-.11v-5.89h8.52v-11.39h-8.55v-6.16h8.57v-11.39h-8.54v-6.32h8.64c.08-3.89,.08-7.52,.01-11.41h-8.9V10.5h-8.57V1.5h-37.92c.05,3.81,.11,7.61,.16,11.69h8.8v8.79h8.85v8.8h8.51v6.23h-8.44v11.31h8.47v6.24h-8.4v11.4h8.36v6.31h-8.39v11.28h8.42v6.23h-8.42v11.24h8.37v6.38h-8.37v11.38h8.37v6.21h-8.4v11.31h8.49c.05,2.23,.35,4.18-.24,6.31h-8.21v11.4h8.37v5.97c-2.9,.49-5.71-.24-8.39,.44v11.15h8.39v6.21h-8.66v8.77h-8.5c-.46,3.18-.35,9.5,.15,11.19,4.41,.49,53.1,.27,54.8-.24v-10.95h-8.69v-8.96h-8.82c.08-2.22-.33-4.11,.36-6.2h8.35v-11.05c-2.91-.58-5.81,.23-8.55-.48v-6.03h8.44c.46-3.18,.34-9.43-.24-11.38h-8.25v-6.16h8.57v-11.49h-8.65c0-2.22-.34-4.11,.3-6.2h8.52c0-2.08,.05-3.92-.01-5.75-.07-1.79,.32-3.63-.39-5.65h-8.4c-.01-2.23-.34-4.19,.23-6.22,5.81-.13,11.53,.07,17.44-.12v-8.51h15.01v8.65h17.48v6.39h-8.51v11.32h8.52v6.16h-8.55v11.33c2.96,.31,5.83-.11,8.73,.27-.16,2.16,.23,4.06-.33,6.16h-8.33c-.45,3.27-.34,9.46,.25,11.4h8.21v6.16h-8.53v11.38h8.54v6.13h-8.71v8.56c-3.04,.73-5.95-.16-8.66,.58v10.92h54.96c.44-3.22,.32-9.39-.27-11.31h-8.43Z"/><path class="b" d="M134.03,74.82h8.46v8.8h8.46v6.23h-8.4v11.31h8.43v6.25h-8.45v11.31h8.45v6.21h-8.39v11.48h8.37v6.23h-8.69v8.53c-3.04,.3-5.83-.12-8.55,.26-.49,2.99,.18,5.8-.43,8.48-3.29,.47-8.64,.35-10.57-.3v-8.45h-8.71v-8.6h-8.63v-6.31h8.55v-11.37h-8.52c-.27-2.18-.4-4.12,.12-6.29h8.43v-11.01c-2.9-.6-5.8,.17-8.64-.49-.11-2.04-.35-3.92,.21-6.04h8.55c0-2.11,.01-3.94,0-5.77-.01-1.8-.06-3.61-.09-5.53h-8.65v-6.33h8.81v-8.71h8.65v-11.17c-5.12-.53-53.46-.31-55.13,.21v10.97h8.75v8.81h8.65v6.21h-8.48v11.46h8.44v6.22h-8.48v11.29h8.52v6.18h-8.47v11.47h8.46v6.21h-8.71v8.77h-8.85v8.63h-10.66v-8.72h-8.82v-8.76h-8.7v-6.25h8.49c.49-3.48,.35-9.57-.28-11.48h-8.15v-6.13h8.49v-11.4h-8.51v-6.16h8.54v-11.38h-8.5v-6.33h8.46c.57-2.97-.2-5.79,.57-8.79h8.29v-11.08H1.77c-.44,3.08-.33,9.37,.25,11.3H10.48v8.8h8.47v6.23H10.54v11.31h8.43v6.25H10.53v11.31h8.46v6.21H10.58v11.48h8.38v6.23H10.53v11.31h8.65v8.83h8.81v8.78h8.83v8.82h8.79v8.84h8.76v8.46h20.04v-8.62h8.88v-8.74h8.88v-8.71h6.2v8.75h8.82v8.81h8.88v8.46c3.72,.45,18.14,.3,20.12-.24v-8.35h8.65v-8.72h8.64c.55-3.03-.18-5.92,.49-8.87h8.52v-8.72h8.72v-8.8h8.69v-11.42h-8.56v-6.25h8.5c.49-3.54,.35-9.57-.29-11.48h-8.14v-6.13h8.43c.45-3.19,.34-9.46-.24-11.4h-8.22v-6.16h8.53v-11.38h-8.5v-6.33h8.47c.52-2.97-.16-5.79,.46-8.55,2.93-.33,5.72,.14,8.39-.29v-11.03h-54.96c-.44,3.18-.33,9.37,.26,11.31Z"/><path class="b" d="M1338.46,177.67h-8.55v-6.02c2.93-.37,5.73,.18,8.46-.33v-11.18h-8.5v-6.23h8.45v-11.36h-8.45v-6.3h8.47v-11.43h-8.46v-6.18h8.52v-11.26h-8.53v-6c2.87-.66,5.78,.19,8.49-.51v-11.17h-8.51v-6.2h8.52v-11.43h-8.5v-6.18h8.53v-11.21c-2.85-.08-5.67-.16-8.63-.24,.02-2.17-.25-4.04,.23-6.2h8.38v-11.29h-8.59c.02-2.21-.35-4.15,.29-6.36h8.58v-8.75h8.41V10.69h-37.56v8.68h-8.55v11.44h8.45v6.2h-8.53v11.27h8.43c.35,2.23,.43,4.15-.08,6.38h-8.31v11.29h8.5v6.09c-5.05-.07-9.95,.27-15.11,0v-8.52h-37.37c-.44,2.9,.16,5.7-.43,8.69h-8.65v8.56c-2.97,.49-5.78-.22-8.68,.49v8.55h-8.66v11.35h8.5v6.22h-8.61c-.04,3.92-.06,7.54,.01,11.45h8.56v6.11h-8.44v11.38h8.5c.12,2.23,.36,4.17-.2,6.38h-8.31v11.29h8.48v6.22h-8.38c-.46,3.19-.35,9.46,.24,11.45h8.39v8.58h8.8v8.91h8.71v8.57h46.56v-8.42h15.12v8.35c4.71,.51,27.04,.31,28.72-.24v-10.81h-8.68v-8.93Zm-29.05-17.51h-8.67v8.76h-8.6v8.77c-5.16,.21-10.05-.06-15.17-.04v-8.63h-8.88v-8.59c-2.9-.6-5.7,.01-8.61-.42v-5.97h8.36v-11.4h-8.2c-.6-2.13-.29-4.08-.25-6.31h8.49v-11.31h-8.4v-6.21h8.37v-11.39h-8.37v-6.33h8.53v-8.66h8.64c.53-3.03-.01-5.91,.36-8.79h14.96v8.67h8.69v8.72c2.99,.06,5.81,.12,8.7,.17v6.18h-8.53v11.27h8.53v6.18h-8.48v11.43h8.47v6.3h-8.45v11.36h8.48v6.24Z"/><path class="b" d="M436.03,177.6v-8.63h-8.57v-6.3h8.47v-11.43h-8.48v-6.18h8.53v-11.27h-8.43c-.4-2.31-.36-4.31-.07-6.5h8.47v-11.12h-8.47v-6.36h8.61c0-2.11,.01-3.94,0-5.77-.01-1.8-.05-3.61-.08-5.58h-8.52v-6.01c2.94-.35,5.73,.17,8.6-.34v-11.18h-8.87v-8.81h-8.84v-8.61h-72.85v8.66h-8.81v8.81h-8.75c-.04,3.92-.06,7.54,0,11.45h8.56v6.11h-8.43v11.07c2.47,.52,35.64,.43,37.51-.11,0-1.79,0-3.62,0-5.46,0-1.8-.03-3.6-.04-5.6h-8.54v-6.13h8.63v-8.61h32.75v8.71h8.56v6.18h-8.46v11.43h8.47v6.2h-61.46v8.78h-8.81v8.81h-8.75c-.04,3.92-.06,7.54,.01,11.45h8.56v6.11h-8.44v11.38h8.49c.13,2.23,.36,4.17-.19,6.37h-8.32v11.29h8.69v8.8h8.81v8.6h72.85v-8.49h6.39v8.4h20.02c.09-6.74,.06-13.31-.16-20.1h-8.65Zm-29.09-8.64h-8.53v8.28c-1.85,.54-28.61,.72-32.72,.24v-8.48h-8.66v-6.23h8.43v-11.39h-8.25c-.54-2.12-.34-4.06-.15-6.2h8.43v-8.38c1.96-.59,27.77-.79,32.82-.3v8.38c2.89,.54,5.69,0,8.62,.36v6.01h-8.52c-.03,1.97-.06,3.77-.08,5.58-.01,1.83,0,3.66,0,5.77h8.48c.52,2.2,.37,4.14,.13,6.35Z"/><path class="b" d="M1581.44,168.88h-8.54v-6.23h8.38v-11.4h-8.38c-.18-2.14-.37-4.07,.17-6.2h8.21v-11.39h-8.57c.19-2.27-.29-4.24,.39-6.37h8.23v-11.17h-8.45v-6.23h8.43v-11.48h-8.37v-6.21h8.38v-11.31h-8.66v-8.78h-8.93v-8.61h-72.75v8.76h-8.94v8.7h-8.46v11.41h8.36c.27,2.14,.25,4.07,.04,6.2h-8.42v11.2h37.3v-11.35h-8.39v-6.2h8.67v-8.61h32.73v8.82h8.55v6.11h-8.44v11.39h8.54c.07,2.24,.33,4.18-.21,6.29h-61.27v8.79h-9.02v8.79h-8.45v11.41h8.37v6.12h-8.39v11.41h8.46v6.3h-8.42v11.14c2.88,.46,5.69-.24,8.69,.51v8.57h8.85v8.46c4.48,.53,70.94,.32,72.77-.24v-8.18h6.36v8.42h19.84v-20.08h-8.63v-8.74Zm-28.97,.06h-8.67v8.64h-32.75v-8.55h-8.6v-6.22h8.37v-11.48h-8.39v-6.19h8.57v-8.69h32.78v8.64h8.66v6.17h-8.49v11.46h8.51v6.2Z"/><path class="b" d="M719.49,153.8h8.47v-11.24h-8.66v-8.84h-9v-8.89h-8.79v-8.74h-8.64v-8.73h-8.85c-2.96,0-5.92,0-8.88,0-2.84-.01-5.67-.04-8.75-.07v-8.89h-8.53v-6.18h8.7v-8.56h32.44c.13,2.08,.35,4.02-.2,6.22h-8.32v11.29h8.69v8.61h20.12v-8.66h8.64v-11.41h-8.44v-6.28h8.37v-11.39h-8.67v-8.5c-4.97-.5-88.65-.28-90.59,.27v8.29h-8.51v11.49h8.41v6.22h-8.47v11.33h8.64v8.78h8.85v8.74c3.07,.06,5.89,.11,8.87,.17v8.76h8.72v8.79h26.35v8.73h8.76c.08,3.04,.15,5.86,.23,8.98h8.55v6.04h-8.44c-.55,3.08,.13,5.96-.5,8.97h-8.65v8.45h-14.97v-8.66h-8.83v-8.79h-8.65v-6.16h8.57v-11.2h-37.49v11.21h8.47v6.24h-8.39v11.41h8.48c-.04,2.14,.34,4.08-.28,6.2h-8.22v11.41h8.64v8.57h90.6v-8.71h8.49v-11.4h-8.38c-.18-2.14-.37-4.07,.18-6.25h8.33v-11.25h-8.48v-6.36Z"/><path class="b" d="M1763.51,45.59h-8.21v-6.13h8.47v-11.31h-8.68v-8.97h-8.93V10.77c-4.05-.49-70.93-.31-72.83,.22v8.3h-8.81v8.99h-8.6v11.27h8.42v6.2h-8.56c0,2.13,0,3.96,0,5.79,0,1.8,.03,3.61,.04,5.4h37.37v-11.38h-8.48c.03-2.17-.34-4.06,.3-6.11h8.38v-8.6h32.8v8.68h8.64v6.18h-8.6c-.07,3.92-.09,7.55,.02,11.47h8.58v6.23h-61.67v8.85h-8.5c-.44,3.02,.2,5.82-.45,8.75h-8.41c-.02,3.86-.09,7.48,.05,11.31h8.44v6.23h-8.38v11.41h8.45v6.22h-8.41v11.44h8.71v8.81h8.81v8.74h7.89v8.62h55.18c.5-2.9-.17-5.78,.43-8.66h9.24v-8.86h9v-8.55c3-.49,5.8,.21,8.48-.44v-11.17h-8.42v-6.23h8.4v-11.23h-37.45c-.06,3.79-.09,7.42,.02,11.34h8.58v6.21h-8.71v8.81h-8.81v8.6h-15v-8.75h-9.01v-8.75h-8.47v-6.22h8.2c.53-2.62,.45-9.57-.15-11.48h-8.08v-6.08c10.29,0,20.42,.01,30.56,0,10.21-.02,20.41-.07,30.91-.11v-8.76h8.9v-8.98h8.5v-11.16h-8.36v-6.31h8.55c0-2.12,.05-3.96-.01-5.79-.06-1.8,.3-3.64-.35-5.6Zm-52.26,97.16h25.07c.06,.7,.11,1.29,.17,2.09h-25.36c.04-.74,.08-1.44,.11-2.09Zm-2.79,0c.04,.72,.07,1.32,.11,2.1h-26.76v-2.1h26.66Z"/><path class="b" d="M1462.75,80.81h-8.58v-8.71h-8.62v-8.57h-73.04v8.74h-8.73c-.39,3.03,.17,5.83-.39,8.76h-8.29v11.32h8.36c.22,2.14,.39,4.07-.13,6.2h-8.25v11.4h8.43v6.14h-8.48v11.4h8.42v6.33h-8.36v11.39h8.36v6.12h-8.39v11.44h8.58v6.22h-8.55v11.41h8.67v8.78h8.85v8.44c3.09,.51,71.04,.39,73.04-.15v-8.47h8.7v-8.72h8.67v-11.39h-8.57v-6.24h8.53v-11.12c-3.1-.48-35.76-.36-37.58,.15,0,1.79,0,3.63,0,5.46,0,1.8,.03,3.6,.05,5.69h8.63c-.03,2.18,.28,4.08-.28,6.22h-8.5v8.54c-10.94,.17-21.68,.24-32.62-.04v-8.67h-8.74v-6.25h8.63v-11.28c-2.99-.28-5.85,.12-8.56-.24v-6.12h61.56v-8.77h8.78v-8.77h8.49v-11.4h-8.43v-6.19h8.57v-11.49h-8.75c.18-2.22-.28-4.11,.4-6.2h8.51c0-2.08,.05-3.92-.02-5.75-.07-1.79,.32-3.63-.39-5.65Zm-28.78,17.58h-8.49c-.15,3.89-.06,7.58-.07,11.47h8.52v6.22h-8.53v8.69c-10.93,.29-21.66,.18-32.6,.06v-8.59h-8.84v-6.24h8.62v-11.5h-8.65v-6.13h8.69v-8.4c1.9-.55,29.36-.7,32.71-.21v8.52h8.63v6.11Z"/><path class="b" d="M1117.55,162.76h8.5c.15,2.22,.39,4.17-.19,6.28h-8.48v8.6c-11.04,.15-21.78,.23-32.82-.05v-8.7h-8.42v-6.23h8.39v-11.33h-8.54v-6.3h61.54v-8.78h8.71v-8.7h8.73v-11.25c-2.99-.35-5.86,.12-8.6-.29v-5.97c2.99-.34,5.86,.13,8.64-.28v-11.31h-8.65v-6.23h8.65v-11.33h-8.91v-8.87h-8.7v-8.35c-3.01-.57-71.03-.42-72.94,.21v8.41h-8.73v8.64h-8.56v11.45h8.45v6.1c-1.52,0-2.87,0-4.22,0-1.41,0-2.81,.03-4.16,.05-.47,3.58-.33,9.55,.31,11.51h8.06v6.21h-8.47v11.27h8.51v6.24h-8.46v11.45h8.42v6.07c-1.54,0-2.89-.01-4.24,0-1.4,.02-2.8,.07-4.15,.1-.47,3.86-.32,9.55,.33,11.38h8.2c-.06,2.16,.32,4.1-.31,6.31h-8.3v11.29h8.69v8.8h8.81v8.6h72.86v-8.7h8.8v-8.59c3.09-.4,5.96,.14,8.69-.36v-11.26h-8.63v-6.25h8.67v-11.18h-37.47v11.32Zm-32.9-58.34c.07-1.83,.02-3.67,.02-5.76-2.91-.42-5.77,.03-8.73-.29v-5.98h8.63v-8.42c1.97-.54,28.82-.7,32.75-.23v8.49h8.69v6.18h-8.45v11.44h8.46v6.34h-8.65v8.59c-10.94,.3-21.67,.21-32.62,.05v-8.4c-2.99-.59-5.86,.03-8.82-.41v-6.06h8.35c.68-1.9,.29-3.74,.36-5.53Z"/><path class="b" d="M531.33,54.47h-17.17v-6.17h8.88v-8.83h8.4v-11.16h-55.17c0,3.8-.11,7.42,.09,11.3h8.77v8.67h8.53v6.36h-17.65v8.67c-8.85,.11-17.44-.04-26.13,.09-.01,3.9-.1,7.45,.06,11.25h8.6v6.37h-8.68c0,3.37,0,6.48,0,9.59,0,.46,.12,.92,.18,1.33,2.95,.53,27.09,.39,28.93-.21v-8.05h14.73v6.11h-8.48v11.31h8.41v6.33h-8.35v11.4h8.35v6.12h-8.38v11.4h8.45v6.23h-8.48v11.31h8.42v6.34h-8.37v11.38h8.37v6.21h-8.59v8.83h-8.8c0,3.89-.1,7.52,.07,11.09,5.46,.55,53.44,.31,55.12-.23v-10.94h-8.53v-8.93h-8.77v-6.14h8.71v-11.34h-8.7v-6.27h8.68v-11.34h-8.7v-6.25h8.66v-11.51h-8.71c-.03-2.19-.34-4.07,.25-6.13h8.44v-11.15c-2.97-.42-5.85,.17-8.65-.39v-5.99h8.64v-11.43h-8.59v-5.99h14.91v8.2c2.85,.54,27.17,.43,28.8-.07v-10.9h-8.35c-.25-2.25-.39-4.25,.13-6.46h8.26v-11.11h-26.39c-.08-3.04-.15-5.86-.22-8.88Z"/><path class="b" d="M899.45,74.4h8.37v-11.06h-26.62v-8.88h-17.16v-6.2h8.74v-8.78h8.43v-11.17h-55.18c0,2-.01,3.83,0,5.65,.02,1.8,.06,3.6,.09,5.61h8.87v8.8h8.54v6.2h-17.54v8.79h-26.22v11.24h8.61v6.34h-8.46c-.5,3.02-.39,9.5,.12,11.13h28.75v-8.52c5.12-.04,9.95-.1,14.75,.02v6.25h-8.43v11.33h8.45v6.25h-8.57c0,2.14-.01,3.97,0,5.81,.02,1.8,.06,3.6,.09,5.6h8.48v6.11h-8.4v11.49h8.38v6.22h-8.44v11.33h8.45v6.25h-8.57c0,2.14-.01,3.97,0,5.81,.01,1.8,.06,3.6,.09,5.6h8.48v6.11h-8.63v8.9h-8.77v11.17h55.05v-11.28h-8.49v-8.89h-8.8c.02-2.22-.34-4.11,.31-6.2h8.38v-11.06c-2.91-.56-5.8,.21-8.56-.46v-6.03h8.67c.02-3.89,.07-7.51-.02-11.38h-8.69v-6.16h8.57v-11.49h-8.73c.16-2.22-.27-4.11,.34-6.11h8.32c.46-3.65,.33-9.59-.29-11.49h-8.18v-6.16h8.51v-11.38h-8.56v-6.03h14.9v8.34c3.9,.51,27.29,.33,28.97-.21v-10.72c-2.89-.08-5.72-.16-8.59-.24-.11-2.25-.35-4.22,.19-6.42Z"/><path class="b" d="M1595.51,22h8.71v8.71h8.54v6.3h-8.53v11.27h8.53v6.18c-2.89,.06-5.72,.11-8.48,.17v11.33h8.49v6.18h-8.47v11.43h8.48v6.2h-8.47v11.43h8.48c.13,2.19,.36,4.07-.19,6.23h-8.33v11.29h8.52v6.18h-8.5v11.43h8.49c.17,2.22,.38,4.17-.18,6.37h-8.3v11.26h8.46v6.23h-8.5v11.28h8.59c0,2.21,.4,4.14-.3,6.35h-8.52v8.84h-8.68c0,2.1-.01,3.93,0,5.76,.02,1.8,.06,3.6,.09,5.34h55v-11.21h-8.47v-8.84h-8.67v-6.3h8.58v-11.3h-8.62c-.16-2.23-.37-4.11,.16-6.23h8.38v-11.4h-8.57v-6.22h8.56v-11.46h-8.52v-6.12h8.55v-11.37h-8.56v-5.98c2.93-.56,5.82,.14,8.58-.44v-11.15h-8.55v-6.31h8.54v-11.38h-8.65c.03-2.18-.41-4.12,.33-6.28h8.35v-11.01c-2.9-.58-5.8,.16-8.71-.49,.03-2.04-.26-3.92,.24-6.04h8.6c0-2.11,.01-3.94,0-5.78-.02-1.8-.06-3.6-.09-5.63h-8.64v-6.23h8.81v-8.75h8.43V10.7h-54.96v11.3Z"/><path class="b" d="M603.44,10.69h-20.04v8.46c-3.1,.3-5.96-.11-8.9,.29,0,2.08-.05,3.92,.01,5.75,.06,1.8-.31,3.64,.37,5.61h8.5c.07,2.17,.23,4.11-.1,6.11-3.88,.13-7.53-.07-11.4,.14v8.58c-3.01,.35-5.8-.16-8.58,.32v10.98h19.89v-8.88h8.98v-8.68h11.3v-8.74h8.61v-11.44h-8.64V10.69Z"/><path class="b" d="M1721.66,169.11h-20.13v8.63h-8.61v11.41h8.69v8.58h20.12v-8.68h8.44v-11.45h-8.51v-8.49Z"/></svg>