<svg width="151" height="209" viewBox="0 0 151 209" fill="none" xmlns="http://www.w3.org/2000/svg">
<path d="M20.1152 10.104V17.28H21.8432V10.104L27.6032 0.0960002H25.7072L21.5072 7.512C21.1952 8.112 21.1952 8.112 20.9792 8.544C20.8112 8.16 20.6672 7.872 20.4752 7.512L16.2272 0.0960002H14.2832L20.1152 10.104Z" fill="#8F8E94"/>
<path d="M27.4699 11.472C27.4699 15 29.9659 17.568 33.3739 17.568C36.7819 17.568 39.2779 15 39.2779 11.472C39.2779 7.92 36.7819 5.352 33.3739 5.352C29.9659 5.352 27.4699 7.92 27.4699 11.472ZM29.1499 11.448C29.1499 8.76 30.8779 6.84 33.3739 6.84C35.8459 6.84 37.5979 8.76 37.5979 11.448C37.5979 14.184 35.8459 16.08 33.3739 16.08C30.8779 16.08 29.1499 14.184 29.1499 11.448Z" fill="#8F8E94"/>
<path d="M50.7653 5.664V11.832C50.7653 14.592 49.4453 16.08 47.2133 16.08C45.3653 16.08 44.1413 15.096 44.1413 12.336V5.64H42.4613V12.864C42.4613 15.696 43.9493 17.568 46.6853 17.568C48.5093 17.568 50.1173 16.656 50.7653 15.312L50.9813 17.28H52.4213V5.664H50.7653Z" fill="#8F8E94"/>
<path d="M62.9029 5.52C62.4949 5.424 62.1829 5.4 61.8229 5.4C60.1909 5.4 58.9669 6.216 58.5109 7.464L58.3909 5.664H56.8309V17.28H58.4869V10.656C58.4869 8.448 59.8549 7.008 61.9909 7.008H62.9029V5.52Z" fill="#8F8E94"/>
<path d="M75.3366 17.28V10.08C75.3366 8.304 76.5126 6.864 78.4566 6.864C80.2086 6.864 81.3366 8.016 81.3366 9.984V17.28H82.9686V10.104C82.9686 8.304 84.1206 6.84 86.0646 6.84C87.8406 6.84 88.9446 8.016 88.9446 10.008V17.28H90.5526V9.672C90.5526 6.984 88.8966 5.352 86.3766 5.352C84.5046 5.352 83.0886 6.312 82.5606 7.824C82.0086 6.312 80.6406 5.352 78.8166 5.352C77.1846 5.352 75.8886 6.096 75.3126 7.32L75.1206 5.664H73.6806V17.28H75.3366Z" fill="#8F8E94"/>
<path d="M103.004 5.664V11.832C103.004 14.592 101.684 16.08 99.4517 16.08C97.6037 16.08 96.3797 15.096 96.3797 12.336V5.64H94.6997V12.864C94.6997 15.696 96.1877 17.568 98.9237 17.568C100.748 17.568 102.356 16.656 103.004 15.312L103.22 17.28H104.66V5.664H103.004Z" fill="#8F8E94"/>
<path d="M107.851 14.016C107.851 16.176 109.483 17.568 112.099 17.568C114.739 17.568 116.515 16.2 116.515 14.112C116.515 12.432 115.603 11.496 113.587 10.992L111.595 10.488C110.323 10.176 109.699 9.552 109.699 8.664C109.699 7.416 110.611 6.72 112.243 6.72C113.803 6.72 114.739 7.512 114.787 8.856H116.395C116.323 6.696 114.739 5.352 112.291 5.352C109.795 5.352 108.091 6.648 108.091 8.688C108.091 10.272 109.075 11.328 111.091 11.832L113.083 12.336C114.451 12.672 114.931 13.224 114.931 14.184C114.931 15.432 113.875 16.2 112.075 16.2C110.443 16.2 109.435 15.36 109.435 14.016H107.851Z" fill="#8F8E94"/>
<path d="M121.017 2.472C121.689 2.472 122.265 1.92 122.265 1.248C122.265 0.576 121.689 0 121.017 0C120.345 0 119.793 0.576 119.793 1.248C119.793 1.92 120.345 2.472 121.017 2.472ZM120.201 17.28H121.857V5.664H120.201V17.28Z" fill="#8F8E94"/>
<path d="M125.455 11.496C125.455 15.144 127.687 17.568 130.975 17.568C133.615 17.568 135.679 16.008 136.231 13.632H134.551C134.095 15.12 132.703 16.08 130.975 16.08C128.623 16.08 127.087 14.232 127.087 11.472C127.087 8.616 128.743 6.816 131.095 6.816C132.703 6.816 134.095 7.704 134.527 9.312H136.183C135.727 6.912 133.759 5.352 131.071 5.352C127.687 5.352 125.455 7.848 125.455 11.496Z" fill="#8F8E94"/>
<path d="M75.127 41.568L75.127 161.568" stroke="#8F8E94" stroke-width="2"/>
<path d="M92.2588 144.539L75.9953 160.802C75.6048 161.193 74.9716 161.193 74.5811 160.802L58.3177 144.539" stroke="#8F8E94" stroke-width="2"/>
<path d="M58.2539 58.5386L74.5174 42.2751C74.9079 41.8846 75.5411 41.8846 75.9316 42.2751L92.195 58.5386" stroke="#8F8E94" stroke-width="2"/>
<path d="M5.832 195.888V203.064H7.56V195.888L13.32 185.88H11.424L7.224 193.296C6.912 193.896 6.912 193.896 6.696 194.328C6.528 193.944 6.384 193.656 6.192 193.296L1.944 185.88H0L5.832 195.888Z" fill="#8F8E94"/>
<path d="M13.1867 197.256C13.1867 200.784 15.6827 203.352 19.0907 203.352C22.4987 203.352 24.9947 200.784 24.9947 197.256C24.9947 193.704 22.4987 191.136 19.0907 191.136C15.6827 191.136 13.1867 193.704 13.1867 197.256ZM14.8667 197.232C14.8667 194.544 16.5947 192.624 19.0907 192.624C21.5627 192.624 23.3147 194.544 23.3147 197.232C23.3147 199.968 21.5627 201.864 19.0907 201.864C16.5947 201.864 14.8667 199.968 14.8667 197.232Z" fill="#8F8E94"/>
<path d="M36.4821 191.448V197.616C36.4821 200.376 35.1621 201.864 32.9301 201.864C31.0821 201.864 29.8581 200.88 29.8581 198.12V191.424H28.1781V198.648C28.1781 201.48 29.6661 203.352 32.4021 203.352C34.2261 203.352 35.8341 202.44 36.4821 201.096L36.6981 203.064H38.1381V191.448H36.4821Z" fill="#8F8E94"/>
<path d="M48.6197 191.304C48.2117 191.208 47.8997 191.184 47.5397 191.184C45.9077 191.184 44.6837 192 44.2277 193.248L44.1077 191.448H42.5477V203.064H44.2037V196.44C44.2037 194.232 45.5717 192.792 47.7077 192.792H48.6197V191.304Z" fill="#8F8E94"/>
<path d="M59.3974 208.128H61.0534V200.832C61.8694 202.512 63.4294 203.352 65.3974 203.352C68.8294 203.352 70.7734 200.712 70.7734 197.208C70.7734 193.704 68.7574 191.136 65.3974 191.136C63.4534 191.136 61.8214 192 61.0054 193.8L60.8374 191.448H59.3974V208.128ZM61.0774 197.256C61.0774 194.568 62.5654 192.648 65.1094 192.648C67.6294 192.648 69.0934 194.568 69.0934 197.256C69.0934 199.92 67.6294 201.864 65.1094 201.864C62.5654 201.864 61.0774 199.92 61.0774 197.256Z" fill="#8F8E94"/>
<path d="M76.101 203.064V185.568H74.445V203.064H76.101Z" fill="#8F8E94"/>
<path d="M83.919 203.352C85.887 203.352 87.471 202.488 88.191 201.024L88.407 203.064H89.799V195.552C89.799 192.48 87.831 191.136 85.143 191.136C82.287 191.136 80.367 192.648 80.367 195H81.879C81.879 193.44 83.079 192.528 85.095 192.528C86.799 192.528 88.167 193.248 88.167 195.528V195.912L84.327 196.224C81.615 196.44 79.983 197.784 79.983 199.92C79.983 201.96 81.447 203.352 83.919 203.352ZM84.303 202.008C82.719 202.008 81.663 201.288 81.663 199.872C81.663 198.576 82.551 197.616 84.735 197.424L88.167 197.16V197.784C88.167 200.304 86.751 202.008 84.303 202.008Z" fill="#8F8E94"/>
<path d="M96.5351 203.064V192.84H98.8631V191.448H96.5351V187.776H94.9031V191.448H92.5751V192.84H94.9031V203.064H96.5351Z" fill="#8F8E94"/>
<path d="M100.777 191.448V192.84H102.553V203.064H104.209V192.84H106.945V191.448H104.209V189.192C104.209 187.824 104.593 187.08 106.057 187.08H107.041V185.664C106.657 185.592 106.177 185.568 105.769 185.568C103.993 185.568 102.553 186.576 102.553 189.192V191.448H100.777Z" fill="#8F8E94"/>
<path d="M108.991 197.256C108.991 200.784 111.487 203.352 114.895 203.352C118.303 203.352 120.799 200.784 120.799 197.256C120.799 193.704 118.303 191.136 114.895 191.136C111.487 191.136 108.991 193.704 108.991 197.256ZM110.671 197.232C110.671 194.544 112.399 192.624 114.895 192.624C117.367 192.624 119.119 194.544 119.119 197.232C119.119 199.968 117.367 201.864 114.895 201.864C112.399 201.864 110.671 199.968 110.671 197.232Z" fill="#8F8E94"/>
<path d="M130.479 191.304C130.071 191.208 129.759 191.184 129.399 191.184C127.767 191.184 126.543 192 126.087 193.248L125.967 191.448H124.407V203.064H126.063V196.44C126.063 194.232 127.431 192.792 129.567 192.792H130.479V191.304Z" fill="#8F8E94"/>
<path d="M135.297 203.064V195.864C135.297 194.088 136.473 192.648 138.417 192.648C140.169 192.648 141.297 193.8 141.297 195.768V203.064H142.929V195.888C142.929 194.088 144.081 192.624 146.025 192.624C147.801 192.624 148.905 193.8 148.905 195.792V203.064H150.513V195.456C150.513 192.768 148.857 191.136 146.337 191.136C144.465 191.136 143.049 192.096 142.521 193.608C141.969 192.096 140.601 191.136 138.777 191.136C137.145 191.136 135.849 191.88 135.273 193.104L135.081 191.448H133.641V203.064H135.297Z" fill="#8F8E94"/>
</svg>
